<svg xmlns="http://www.w3.org/2000/svg" width="640" height="180" viewBox="0 0 640 180">
  <defs>
    <linearGradient id="g" x1="0" y1="0" x2="1" y2="1">
      <stop offset="0" stop-color="#2bd3c8"/>
      <stop offset="1" stop-color="#2b63d3"/>
    </linearGradient>
  </defs>
  <rect width="640" height="180" fill="none"/>
  <g transform="translate(36,34)">
    <path d="M22 88c26-50 52-76 78-78 10-1 18 3 23 11 7 12 6 28-3 48-13 29-34 49-63 60-18 7-30 5-35-6-3-7-1-19 0-35z"
          fill="none" stroke="url(#g)" stroke-width="6" opacity="0.9"/>
    <path d="M57 104c58-10 108-33 150-70" fill="none" stroke="url(#g)" stroke-width="6" opacity="0.6"/>
    <circle cx="164" cy="38" r="6" fill="url(#g)" opacity="0.9"/>
  </g>
  <text x="240" y="92" font-family="ui-sans-serif,system-ui,-apple-system,Segoe UI,Roboto,Helvetica,Arial" font-size="44" fill="#e8edf6" font-weight="750" letter-spacing="1">VALE</text>
  <text x="240" y="128" font-family="ui-sans-serif,system-ui,-apple-system,Segoe UI,Roboto,Helvetica,Arial" font-size="16" fill="#a9b4c6" letter-spacing="3">EDITORIAL</text>
</svg>
